# Alias OBJ Model File
# Exported from SketchUp, (c) 2000-2012 Trimble Navigation Limited
# File units = meters

mtllib GLORIA 2019 2.1 TD export.mtl

g Mesh1 Mellem_3kant1 Group1 Model

usemtl _3
v -1.40297 2.74196 1.99143
vt 31.13 -52.3562
vn 1 6.02004e-13 -2.10225e-17
v -1.40297 4.09148 4.32636
vt 31.1794 53.8198
v -1.40297 2.74417 5.10423
vt -30.0702 53.8198
f 1/1/1 2/2/1 3/3/1

g Mesh2 Stor_3kant1 Group1 Model

v -1.40277 2.50615 1.33396
vt 35.8586 63.6623
vn -1 -1.23748e-13 4.18323e-14
v -1.40277 0.906508 2.25751
vt -36.862 63.6623
v -1.40277 2.50603 5.02797
vt -36.862 -62.2843
f 4/4/2 5/5/2 6/6/2

g Mesh3 Stor_3kant2 Group2 Model

v -1.20277 -1.26952 1.77445
vn -1 -9.83467e-13 -4.18322e-14
v -1.20277 -2.86905 4.5449
v -1.20277 -1.26941 5.46845
f 7/6/3 8/5/3 9/4/3

g Mesh4 Mellem_3kant2 Group2 Model

v -1.20277 -2.80426 1.1812
vn 1 9.11013e-13 -1.83826e-18
v -1.20277 -1.45695 1.95907
v -1.20277 -2.80647 4.294
f 10/3/4 11/2/4 12/1/4

g Mesh5 Lille_3kant1 Group3 Model

usemtl _2
v -1.70942 3.83423 3.39376
vt 21.3369 -35.3941
vn 0.996195 0.0871558 -3.19829e-17
v -1.62954 2.92121 1.80632
vt 21.3369 36.772
v -1.70943 3.83435 1.27711
vt -20.3335 36.772
f 13/7/5 14/8/5 15/9/5

g Mesh6 Mellem_3kant3 Group3 Model

usemtl _3
v -2.62773 5.17356 4.73677
vn 0.819152 0.573576 -1.81111e-18
v -1.85367 4.06809 2.40184
v -2.62646 5.17175 1.62397
f 16/1/6 17/2/6 18/3/6

g Mesh7 Lille_3kant2 Group3 Model

usemtl _2
v -2.67461 5.22472 2.16304
vn 0.642788 0.766044 -2.31695e-16
v -3.3767 5.81385 3.75048
v -2.67452 5.22465 4.2797
f 19/7/7 20/8/7 21/9/7

g Mesh8 Lille_3kant3 Group4 Model

v -2.58077 -5.16911 4.36849
vn 0.642787 -0.766045 1.81052e-17
v -3.28295 -5.75831 3.83928
v -2.58086 -5.16919 2.25184
f 22/9/8 23/8/8 24/7/8

g Mesh9 Lille_3kant4 Group5 Model

v -2.80736 0.153771 1.50994
vn 1 9.10865e-13 8.73557e-17
v -2.80736 1.07028 3.09739
v -2.80736 0.153654 3.6266
f 25/7/9 26/8/9 27/9/9

g Mesh10 Mellem_3kant4 Group5 Model

usemtl _3
v -2.80736 0.0815603 4.17693
vn 1 -5.12933e-14 1.81111e-18
v -2.80736 -1.26575 3.39906
v -2.80736 0.0837705 1.06413
f 28/3/10 29/2/10 30/1/10

g Mesh11 Lille_3kant5 Model

usemtl _2
v -1.23677 1.28256 5.34788
vn 1 5.10206e-14 -3.63295e-17
v -1.23677 0.366055 3.76044
v -1.23677 1.28268 3.23123
f 31/7/11 32/8/11 33/9/11

g Mesh12 Lille_3kant6 Model

v -1.3377 -2.90508 3.55431
vn 0.939693 -0.34202 -9.29171e-17
v -1.65121 -3.76643 3.0251
v -1.33774 -2.90519 1.43766
f 34/9/12 35/8/12 36/7/12

g Mesh13 Mellem_3kant5 Model

usemtl _3
v -2.49771 -5.01741 1.59138
vn 0.819152 -0.573577 8.14556e-17
v -1.72492 -3.91376 2.36925
v -2.49898 -5.01922 4.70418
f 37/3/13 38/2/13 39/1/13

