<svg id="Layer_1" data-name="Layer 1" xmlns="http://www.w3.org/2000/svg" width="4794.43" height="1720.63" viewBox="0 0 4794.43 1720.63">
  <defs>
    <style>
      .cls-1 {
        fill: red;
      }

      .cls-1, .cls-10, .cls-11, .cls-12, .cls-13, .cls-14, .cls-15, .cls-16, .cls-17, .cls-18, .cls-19, .cls-2, .cls-3, .cls-4, .cls-5, .cls-6, .cls-7, .cls-8, .cls-9 {
        stroke: #fff;
        stroke-linecap: square;
        stroke-linejoin: bevel;
        stroke-opacity: 0.5;
      }

      .cls-2 {
        fill: #ffb31a;
      }

      .cls-3 {
        fill: #84e522;
      }

      .cls-4 {
        fill: #26deff;
      }

      .cls-5 {
        fill: #6d17e5;
      }

      .cls-6 {
        fill: #e2d1fa;
      }

      .cls-7 {
        fill: #a8f2ff;
      }

      .cls-8 {
        fill: #ff33c4;
      }

      .cls-9 {
        fill: #e5e500;
      }

      .cls-10 {
        fill: #03f800;
      }

      .cls-11 {
        fill: #f760ff;
      }

      .cls-12 {
        fill: #742f00;
      }

      .cls-13 {
        fill: #abff50;
      }

      .cls-14 {
        fill: #9300a7;
      }

      .cls-15 {
        fill: #06ff7b;
      }

      .cls-16 {
        fill: #ebfeff;
      }

      .cls-17 {
        fill: #910000;
      }

      .cls-18 {
        fill: #006d5c;
      }

      .cls-19 {
        fill: #91ff20;
      }
    </style>
  </defs>
  <title>Mapping</title>
  <path class="cls-1" d="M354.71,556,4.85,758l349.74,606.22L354.71,556" transform="translate(-4.41 0.31)"/>
  <path class="cls-2" d="M368.08,1575.88l523.41-294.5L368,398l.08,1177.84" transform="translate(-4.41 0.31)"/>
  <path class="cls-3" d="M952.72,722.38,686.85,875.88l265.74,460.73.13-614.23" transform="translate(-4.41 0.31)"/>
  <path class="cls-4" d="M980.56,1662.1l350.13-202-350-606.22-.13,808.22" transform="translate(-4.41 0.31)"/>
  <path class="cls-5" d="M1306.45,52.84,796.36,347.34l510.17,883.35-.08-1177.85" transform="translate(-4.41 0.31)"/>
  <path class="cls-6" d="M1346,1613.72l599.84-346.5L1345.81,228l.16,1385.73" transform="translate(-4.41 0.31)"/>
  <path class="cls-7" d="M1712.43,182.91l-265.87,153.5L1712.3,797.14l.13-614.23" transform="translate(-4.41 0.31)"/>
  <path class="cls-8" d="M1745.89,808.15l350.13-202L1746-.06l-.13,808.21" transform="translate(-4.41 0.31)"/>
  <path class="cls-9" d="M2180.3,750.59l-349.87,202,349.74,606.22.13-808.22" transform="translate(-4.41 0.31)"/>
  <path class="cls-10" d="M2219,542.22l510.08,294.5-510,883.35L2219,542.22" transform="translate(-4.41 0.31)"/>
  <path class="cls-11" d="M2769.79,748.88l-265.87-153.5,266-460.73-.13,614.23" transform="translate(-4.41 0.31)"/>
  <path class="cls-12" d="M2803.78,74.11l600.16,346.5-600,1039.23-.16-1385.73" transform="translate(-4.41 0.31)"/>
  <path class="cls-13" d="M3420.74,1664.3l-510.08-294.5,510-883.34.08,1177.84" transform="translate(-4.41 0.31)"/>
  <path class="cls-14" d="M3455,777.37l349.88,202-350,606.22.12-808.22" transform="translate(-4.41 0.31)"/>
  <path class="cls-15" d="M3781.87,906.61,3516,753.11l266-460.72-.13,614.22" transform="translate(-4.41 0.31)"/>
  <path class="cls-16" d="M3813.94,609.27l265.87,153.5-266,460.73.13-614.23" transform="translate(-4.41 0.31)"/>
  <path class="cls-17" d="M4346.77,1536.75l-510.08-294.5,510-883.34.08,1177.84" transform="translate(-4.41 0.31)"/>
  <path class="cls-18" d="M4798.15,1170.11l-265.86-153.5,266-460.73-.14,614.23" transform="translate(-4.41 0.31)"/>
  <path class="cls-19" d="M4374.83,428.64l349.88,202-350,606.22.12-808.22" transform="translate(-4.41 0.31)"/>
</svg>
