<?xml version="1.0" encoding="utf-8"?>
<!-- Generator: Adobe Illustrator 22.0.1, SVG Export Plug-In . SVG Version: 6.00 Build 0)  -->
<svg version="1.1" xmlns="http://www.w3.org/2000/svg" xmlns:xlink="http://www.w3.org/1999/xlink" x="0px" y="0px"
	 viewBox="0 0 4800 2080" style="enable-background:new 0 0 4800 2080;" xml:space="preserve">
<style type="text/css">
	.st0{fill:none;stroke:#FFFFFF;stroke-linecap:square;stroke-linejoin:bevel;}
	.st1{fill:none;stroke:#000000;stroke-linecap:square;stroke-linejoin:bevel;stroke-opacity:0;}
	.st2{fill:#FF0000;stroke:#FFFFFF;stroke-linecap:square;stroke-linejoin:bevel;stroke-opacity:0.502;}
	.st3{fill:#FFB31A;stroke:#FFFFFF;stroke-linecap:square;stroke-linejoin:bevel;stroke-opacity:0.502;}
	.st4{fill:#84E522;stroke:#FFFFFF;stroke-linecap:square;stroke-linejoin:bevel;stroke-opacity:0.502;}
	.st5{fill:#26DEFF;stroke:#FFFFFF;stroke-linecap:square;stroke-linejoin:bevel;stroke-opacity:0.502;}
	.st6{fill:#6D17E5;stroke:#FFFFFF;stroke-linecap:square;stroke-linejoin:bevel;stroke-opacity:0.502;}
	.st7{fill:#E2D1FA;stroke:#FFFFFF;stroke-linecap:square;stroke-linejoin:bevel;stroke-opacity:0.502;}
	.st8{fill:#A8F2FF;stroke:#FFFFFF;stroke-linecap:square;stroke-linejoin:bevel;stroke-opacity:0.502;}
	.st9{fill:#FF33C4;stroke:#FFFFFF;stroke-linecap:square;stroke-linejoin:bevel;stroke-opacity:0.502;}
	.st10{fill:#E5E500;stroke:#FFFFFF;stroke-linecap:square;stroke-linejoin:bevel;stroke-opacity:0.502;}
	.st11{fill:#03F800;stroke:#FFFFFF;stroke-linecap:square;stroke-linejoin:bevel;stroke-opacity:0.502;}
	.st12{fill:#F760FF;stroke:#FFFFFF;stroke-linecap:square;stroke-linejoin:bevel;stroke-opacity:0.502;}
	.st13{fill:#742F00;stroke:#FFFFFF;stroke-linecap:square;stroke-linejoin:bevel;stroke-opacity:0.502;}
	.st14{fill:#ABFF50;stroke:#FFFFFF;stroke-linecap:square;stroke-linejoin:bevel;stroke-opacity:0.502;}
	.st15{fill:#9300A7;stroke:#FFFFFF;stroke-linecap:square;stroke-linejoin:bevel;stroke-opacity:0.502;}
	.st16{fill:#06FF7B;stroke:#FFFFFF;stroke-linecap:square;stroke-linejoin:bevel;stroke-opacity:0.502;}
	.st17{fill:#EBFEFF;stroke:#FFFFFF;stroke-linecap:square;stroke-linejoin:bevel;stroke-opacity:0.502;}
	.st18{fill:#910000;stroke:#FFFFFF;stroke-linecap:square;stroke-linejoin:bevel;stroke-opacity:0.502;}
	.st19{fill:#006D5C;stroke:#FFFFFF;stroke-linecap:square;stroke-linejoin:bevel;stroke-opacity:0.502;}
	.st20{fill:#91FF20;stroke:#FFFFFF;stroke-linecap:square;stroke-linejoin:bevel;stroke-opacity:0.502;}
</style>
<g id="Layer_1">
	<title>MadMapper SVG export</title>
	<desc>MadMapper SVG export</desc>
	<g>
		<g transform="matrix(1,0,0,1,0,0)">
		</g>
		<g transform="matrix(1,0,0,1,0,0)">
		</g>
		<g transform="matrix(1,0,0,1,0,0)">
			<rect y="0" width="4800" height="2080"/>
		</g>
		<g transform="matrix(1,0,0,1,0,0)">
		</g>
		<g transform="matrix(1,0,0,1,0,0)">
		</g>
		<g transform="matrix(1,0,0,1,0,0)">
			<rect y="0" vector-effect="non-scaling-stroke" class="st0" width="4800" height="2080"/>
		</g>
		<g transform="matrix(1,0,0,1,0,0)">
		</g>
		<g transform="matrix(1,0,0,1,0,0)">
		</g>
		<g transform="matrix(1,0,0,1,0,0)">
			<line vector-effect="none" class="st1" x1="0" y1="0" x2="100" y2="100"/>
		</g>
		<g transform="matrix(1,0,0,1,0,0)">
		</g>
		<g transform="matrix(0.866025,0.5,-0.5,0.866025,238.045,1030.21)">
		</g>
		<g transform="matrix(0.866025,0.5,-0.5,0.866025,238.045,1030.21)">
			<path vector-effect="non-scaling-stroke" class="st2" d="M-67.3-350l-202,349.9l606,350.1L-67.3-350"/>
		</g>
		<g transform="matrix(0.866025,0.5,-0.5,0.866025,238.045,1030.21)">
		</g>
		<g transform="matrix(-0.866025,-0.5,0.5,-0.866025,542.519,1222.62)">
		</g>
		<g transform="matrix(-0.866025,-0.5,0.5,-0.866025,542.519,1222.62)">
			<path vector-effect="non-scaling-stroke" class="st3" d="M-94.3-512.3l-306,516.7l895,503.3L-94.3-512.3"/>
		</g>
		<g transform="matrix(-0.866025,-0.5,0.5,-0.866025,542.519,1222.62)">
		</g>
		<g transform="matrix(0.866025,0.5,-0.5,0.866025,864.052,1115.81)">
		</g>
		<g transform="matrix(0.866025,0.5,-0.5,0.866025,864.052,1115.81)">
			<path vector-effect="non-scaling-stroke" class="st4" d="M-51.2-266L-204.7-0.1L255.8,266L-51.2-266"/>
		</g>
		<g transform="matrix(0.866025,0.5,-0.5,0.866025,864.052,1115.81)">
		</g>
		<g transform="matrix(-0.866025,-0.5,0.5,-0.866025,1097.31,1462.88)">
		</g>
		<g transform="matrix(-0.866025,-0.5,0.5,-0.866025,1097.31,1462.88)">
			<path vector-effect="non-scaling-stroke" class="st5" d="M-67.3-350L-269.5,0l606.2,350L-67.3-350"/>
		</g>
		<g transform="matrix(-0.866025,-0.5,0.5,-0.866025,1097.31,1462.88)">
		</g>
		<g transform="matrix(0.866025,0.5,-0.5,0.866025,1136.44,681.14)">
		</g>
		<g transform="matrix(0.866025,0.5,-0.5,0.866025,1136.44,681.14)">
			<path vector-effect="non-scaling-stroke" class="st6" d="M-98.2-510L-392.7,0.1L490.8,510L-98.2-510"/>
		</g>
		<g transform="matrix(0.866025,0.5,-0.5,0.866025,1136.44,681.14)">
		</g>
		<g transform="matrix(-0.866025,-0.5,0.5,-0.866025,1545.86,1173.83)">
		</g>
		<g transform="matrix(-0.866025,-0.5,0.5,-0.866025,1545.86,1173.83)">
			<path vector-effect="non-scaling-stroke" class="st7" d="M-115.6-600L-461.8,0L577.4,600L-115.6-600"/>
		</g>
		<g transform="matrix(-0.866025,-0.5,0.5,-0.866025,1545.86,1173.83)">
		</g>
		<g transform="matrix(0.866025,0.5,-0.5,0.866025,1623.76,576.337)">
		</g>
		<g transform="matrix(0.866025,0.5,-0.5,0.866025,1623.76,576.337)">
			<path vector-effect="non-scaling-stroke" class="st8" d="M-51.2-266L-204.7-0.1L255.8,266L-51.2-266"/>
		</g>
		<g transform="matrix(0.866025,0.5,-0.5,0.866025,1623.76,576.337)">
		</g>
		<g transform="matrix(-0.866025,-0.5,0.5,-0.866025,1862.64,608.934)">
		</g>
		<g transform="matrix(-0.866025,-0.5,0.5,-0.866025,1862.64,608.934)">
			<path vector-effect="non-scaling-stroke" class="st9" d="M-67.3-350L-269.5,0l606.2,350L-67.3-350"/>
		</g>
		<g transform="matrix(-0.866025,-0.5,0.5,-0.866025,1862.64,608.934)">
		</g>
		<g transform="matrix(0.866025,0.5,-0.5,0.866025,2063.63,1224.85)">
		</g>
		<g transform="matrix(0.866025,0.5,-0.5,0.866025,2063.63,1224.85)">
			<path vector-effect="non-scaling-stroke" class="st10" d="M-67.3-350l-202,349.9l606,350.1L-67.3-350"/>
		</g>
		<g transform="matrix(0.866025,0.5,-0.5,0.866025,2063.63,1224.85)">
		</g>
		<g transform="matrix(0.866025,0.5,-0.5,0.866025,2389.02,1170.52)">
		</g>
		<g transform="matrix(0.866025,0.5,-0.5,0.866025,2389.02,1170.52)">
			<path vector-effect="non-scaling-stroke" class="st11" d="M-392.7-340h589l0,1020L-392.7-340"/>
		</g>
		<g transform="matrix(0.866025,0.5,-0.5,0.866025,2389.02,1170.52)">
		</g>
		<g transform="matrix(-0.866025,-0.5,0.5,-0.866025,2681.2,630.49)">
		</g>
		<g transform="matrix(-0.866025,-0.5,0.5,-0.866025,2681.2,630.49)">
			<path vector-effect="non-scaling-stroke" class="st12" d="M-204.7-177.3l307,0l0,532L-204.7-177.3"/>
		</g>
		<g transform="matrix(-0.866025,-0.5,0.5,-0.866025,2681.2,630.49)">
		</g>
		<g transform="matrix(0.866025,0.5,-0.5,0.866025,3003.88,789.04)">
		</g>
		<g transform="matrix(0.866025,0.5,-0.5,0.866025,3003.88,789.04)">
			<path vector-effect="non-scaling-stroke" class="st13" d="M-462-400h693l0,1200L-462-400"/>
		</g>
		<g transform="matrix(0.866025,0.5,-0.5,0.866025,3003.88,789.04)">
		</g>
		<g transform="matrix(-0.866025,-0.5,0.5,-0.866025,3250.68,1311.04)">
		</g>
		<g transform="matrix(-0.866025,-0.5,0.5,-0.866025,3250.68,1311.04)">
			<path vector-effect="non-scaling-stroke" class="st14" d="M-392.7-340l589,0l0,1020L-392.7-340"/>
		</g>
		<g transform="matrix(-0.866025,-0.5,0.5,-0.866025,3250.68,1311.04)">
		</g>
		<g transform="matrix(0.866025,0.5,-0.5,0.866025,3571.62,1251.63)">
		</g>
		<g transform="matrix(0.866025,0.5,-0.5,0.866025,3571.62,1251.63)">
			<path vector-effect="non-scaling-stroke" class="st15" d="M-269.3-233.3h404l0,700L-269.3-233.3"/>
		</g>
		<g transform="matrix(0.866025,0.5,-0.5,0.866025,3571.62,1251.63)">
		</g>
		<g transform="matrix(-0.866025,-0.5,0.5,-0.866025,3693.28,788.221)">
		</g>
		<g transform="matrix(-0.866025,-0.5,0.5,-0.866025,3693.28,788.221)">
			<path vector-effect="non-scaling-stroke" class="st16" d="M-204.7-177.3l307,0l0,532L-204.7-177.3"/>
		</g>
		<g transform="matrix(-0.866025,-0.5,0.5,-0.866025,3693.28,788.221)">
		</g>
		<g transform="matrix(0.866025,0.5,-0.5,0.866025,3902.52,1002.7)">
		</g>
		<g transform="matrix(0.866025,0.5,-0.5,0.866025,3902.52,1002.7)">
			<path vector-effect="non-scaling-stroke" class="st17" d="M-204.7-177.3h307l0,532L-204.7-177.3"/>
		</g>
		<g transform="matrix(0.866025,0.5,-0.5,0.866025,3902.52,1002.7)">
		</g>
		<g transform="matrix(-0.866025,-0.5,0.5,-0.866025,4176.71,1183.49)">
		</g>
		<g transform="matrix(-0.866025,-0.5,0.5,-0.866025,4176.71,1183.49)">
			<path vector-effect="non-scaling-stroke" class="st18" d="M-392.7-340l589,0l0,1020L-392.7-340"/>
		</g>
		<g transform="matrix(-0.866025,-0.5,0.5,-0.866025,4176.71,1183.49)">
		</g>
		<g transform="matrix(-0.866025,-0.5,0.5,-0.866025,4709.57,1051.72)">
		</g>
		<g transform="matrix(-0.866025,-0.5,0.5,-0.866025,4709.57,1051.72)">
			<path vector-effect="non-scaling-stroke" class="st19" d="M-204.7-177.3l307,0l0,532L-204.7-177.3"/>
		</g>
		<g transform="matrix(-0.866025,-0.5,0.5,-0.866025,4709.57,1051.72)">
		</g>
		<g transform="matrix(0.866025,0.5,-0.5,0.866025,4491.41,902.898)">
		</g>
		<g transform="matrix(0.866025,0.5,-0.5,0.866025,4491.41,902.898)">
			<path vector-effect="non-scaling-stroke" class="st20" d="M-269.3-233.3h404l0,700L-269.3-233.3"/>
		</g>
		<g transform="matrix(0.866025,0.5,-0.5,0.866025,4491.41,902.898)">
		</g>
		<g transform="matrix(1,0,0,1,0,0)">
		</g>
	</g>
</g>
<g id="Layer_2">
</g>
</svg>
