# Blender v2.79 (sub 0) OBJ File: ''
# www.blender.org
mtllib svg export.mtl
o Curve.021
v 1.234704 0.000000 0.159765
v 1.333448 0.000000 0.216763
v 1.234668 0.000000 0.387819
vn 0.0000 1.0000 0.0000
usemtl SVGMat
s off
f 3//1 2//1 1//1
o Curve.020
v 1.354186 0.000000 0.368968
v 1.279150 0.000000 0.325655
v 1.354223 0.000000 0.195653
vn 0.0000 1.0000 0.0000
usemtl SVGMat
s off
f 5//2 4//2 6//2
o Curve.019
v 1.226789 0.000000 0.472431
v 1.082828 0.000000 0.389333
v 1.226764 0.000000 0.140081
vn 0.0000 1.0000 0.0000
usemtl SVGMat
s off
f 8//3 7//3 9//3
o Curve.018
v 1.076389 0.000000 0.210724
v 1.151425 0.000000 0.254037
v 1.076352 0.000000 0.384039
vn 0.0000 1.0000 0.0000
usemtl SVGMat
s off
f 12//4 11//4 10//4
o Curve.017
v 1.067360 0.000000 0.294617
v 0.992324 0.000000 0.251304
v 1.067397 0.000000 0.121302
vn 0.0000 1.0000 0.0000
usemtl SVGMat
s off
f 14//5 13//5 15//5
o Curve.016
v 0.975113 0.000000 0.258166
v 1.073857 0.000000 0.315164
v 0.975077 0.000000 0.486220
vn 0.0000 1.0000 0.0000
usemtl SVGMat
s off
f 18//6 17//6 16//6
o Curve.015
v 0.965438 0.000000 0.508422
v 0.821476 0.000000 0.425323
v 0.965413 0.000000 0.176071
vn 0.0000 1.0000 0.0000
usemtl SVGMat
s off
f 20//7 19//7 21//7
o Curve.014
v 0.791305 0.000000 0.059715
v 0.960686 0.000000 0.157487
v 0.791349 0.000000 0.450725
vn 0.0000 1.0000 0.0000
usemtl SVGMat
s off
f 24//8 23//8 22//8
o Curve.013
v 0.781723 0.000000 0.250110
v 0.706687 0.000000 0.206797
v 0.781760 0.000000 0.076795
vn 0.0000 1.0000 0.0000
usemtl SVGMat
s off
f 26//9 25//9 27//9
o Curve.012
v 0.626246 0.000000 0.191796
v 0.770207 0.000000 0.274895
v 0.626271 0.000000 0.524147
vn 0.0000 1.0000 0.0000
usemtl SVGMat
s off
f 30//10 29//10 28//10
o Curve.011
v 0.615356 0.000000 0.250591
v 0.516608 0.000000 0.307596
v 0.615320 0.000000 0.478645
vn 0.0000 1.0000 0.0000
usemtl SVGMat
s off
f 32//11 33//11 31//11
o Curve.010
v 0.492749 0.000000 0.266845
v 0.591560 0.000000 0.209844
v 0.492785 0.000000 0.038791
vn 0.0000 1.0000 0.0000
usemtl SVGMat
s off
f 34//12 35//12 36//12
o Curve.009
v 0.483293 0.000000 0.090400
v 0.408253 0.000000 0.133720
v 0.483257 0.000000 0.263715
vn 0.0000 1.0000 0.0000
usemtl SVGMat
s off
f 38//13 39//13 37//13
o Curve.008
v 0.379872 0.000000 0.494146
v 0.549157 0.000000 0.396370
v 0.379828 0.000000 0.103137
vn 0.0000 1.0000 0.0000
usemtl SVGMat
s off
f 40//14 41//14 42//14
o Curve.007
v 0.368702 0.000000 0.053716
v 0.224739 0.000000 0.136817
v 0.368727 0.000000 0.386066
vn 0.0000 1.0000 0.0000
usemtl SVGMat
s off
f 44//15 45//15 43//15
o Curve.006
v 0.276751 0.000000 0.507801
v 0.375562 0.000000 0.450801
v 0.276787 0.000000 0.279748
vn 0.0000 1.0000 0.0000
usemtl SVGMat
s off
f 46//16 47//16 48//16
o Curve.005
v 0.268882 0.000000 0.242622
v 0.193842 0.000000 0.285942
v 0.268845 0.000000 0.415937
vn 0.0000 1.0000 0.0000
usemtl SVGMat
s off
f 50//17 51//17 49//17
o Curve.004
v 0.103870 0.000000 0.483477
v 0.251575 0.000000 0.400385
v 0.103845 0.000000 0.151126
vn 0.0000 1.0000 0.0000
usemtl SVGMat
s off
f 52//18 53//18 54//18
o Curve.003
v 0.100124 0.000000 0.195670
v 0.001376 0.000000 0.252674
v 0.100088 0.000000 0.423723
vn 0.0000 1.0000 0.0000
usemtl SVGMat
s off
f 56//19 57//19 55//19
