# Blender v2.79 (sub 0) OBJ File: 'uvmapping.blend'
# www.blender.org
mtllib uvmapping_test5.mtl
o instance_3_ID31
v -3.376700 3.750484 -5.813845
v -2.674524 4.279698 -5.224649
v -2.674613 2.163043 -5.224724
v -1.202765 5.314707 1.199523
v -1.202766 3.700563 1.199640
v -1.202765 4.104776 0.499520
v -1.599092 3.327897 3.623249
v -1.599052 4.942040 3.623140
v -1.359637 3.732111 2.965353
v -1.674877 2.360637 3.842288
v -1.674809 3.974781 3.842193
v -2.076382 3.570566 4.415696
v -2.498976 4.704180 5.019224
v -2.497709 1.591379 5.017414
v -1.724923 2.369250 3.913761
v -1.651205 3.025098 3.766429
v -1.337701 3.554312 2.905084
v -1.337741 1.437658 2.905192
v -1.236766 4.944882 -1.401049
v -1.236766 3.330738 -1.401165
v -1.236766 4.540668 -2.101168
v -1.236766 3.231225 -1.282681
v -1.236766 5.347878 -1.282564
v -1.236766 3.760438 -0.366055
v -1.202766 1.181203 2.804256
v -1.202766 1.959074 1.456945
v -1.202766 4.294003 2.806467
v -1.202765 4.544902 2.869045
v -1.202766 1.774449 1.269523
v -1.202766 5.468453 1.269407
v -1.402766 2.257514 -0.906508
v -1.402766 5.027967 -2.506030
v -1.402766 1.333963 -2.506146
v -1.402974 4.326358 -4.091483
v -1.402974 5.104229 -2.744171
v -1.402975 1.991428 -2.741961
v -2.807361 1.064133 -0.083771
v -2.807362 3.399062 1.265751
v -2.807361 4.176933 -0.081561
v -2.807361 1.509945 -0.153771
v -2.807361 3.626599 -0.153655
v -2.807361 3.097385 -1.070280
v -3.437861 4.047036 5.888296
v -3.437950 2.432892 5.888370
v -2.901627 2.837106 5.438342
v -2.580858 2.251839 5.169186
v -3.282945 3.839279 5.758306
v -2.580769 4.368493 5.169110
v -2.626459 1.623966 -5.171746
v -2.627726 4.736766 -5.173557
v -1.853673 2.401837 -4.068093
v -1.729995 2.170874 -3.891464
v -2.131500 3.380804 -4.464872
v -1.729928 3.785018 -3.891368
v -1.629538 1.806323 -2.921208
v -1.709428 1.277109 -3.834345
v -1.709417 3.393764 -3.834230
vt 0.005655 0.577407
vt 0.070995 0.648010
vt 0.071181 0.308554
vt 0.527021 0.646473
vt 0.575134 0.849990
vt 0.574362 0.582781
vt 0.788804 0.484623
vt 0.796422 0.817257
vt 0.730367 0.563541
vt 0.854387 0.571229
vt 0.790398 0.339308
vt 0.798102 0.649086
vt 0.914112 0.752653
vt 0.892666 0.182377
vt 0.796535 0.328658
vt 0.810609 0.476706
vt 0.718090 0.602457
vt 0.710009 0.115923
vt 0.355549 0.837010
vt 0.354783 0.564889
vt 0.306065 0.770818
vt 0.428783 0.660054
vt 0.366656 0.575989
vt 0.364578 0.928478
vt 0.718183 0.696047
vt 0.709256 0.135757
vt 0.609177 0.266907
vt 0.707806 0.710854
vt 0.584246 0.222644
vt 0.586517 0.879162
vt 0.397742 0.311147
vt 0.285952 0.792579
vt 0.287369 0.175932
vt 0.163179 0.783052
vt 0.269188 0.922806
vt 0.269980 0.343037
vt 0.470503 0.145123
vt 0.466839 0.648508
vt 0.562984 0.519628
vt 0.455809 0.192573
vt 0.452692 0.572847
vt 0.382116 0.472317
vt 0.945747 0.436974
vt 1.002907 0.632304
vt 0.989921 0.368162
vt 0.909838 0.374805
vt 0.985731 0.636518
vt 0.923335 0.721776
vt 0.181726 0.296301
vt 0.077462 0.177757
vt 0.082761 0.749089
vt 0.200233 0.633957
vt 0.206012 0.235993
vt 0.125677 0.537028
vt 0.274590 0.222278
vt 0.204943 0.140843
vt 0.204302 0.515838
vn 0.6428 0.0000 -0.7660
vn 1.0000 0.0000 0.0000
vn -0.9397 0.0000 -0.3420
vn 0.8192 -0.0000 0.5736
vn -1.0000 0.0000 0.0000
vn 0.6428 -0.0000 0.7660
vn -0.6428 -0.0000 -0.7660
vn 0.8192 -0.0000 -0.5736
vn 0.9962 0.0000 -0.0872
usemtl Material.001
s off
f 1/1/1 2/2/1 3/3/1
f 6/4/2 4/5/2 5/6/2
f 7/7/3 8/8/3 9/9/3
f 12/10/4 10/11/4 11/12/4
f 13/13/4 14/14/4 15/15/4
f 16/16/3 17/17/3 18/18/3
f 19/19/2 20/20/2 21/21/2
f 24/22/2 22/23/2 23/24/2
f 27/25/2 25/26/2 26/27/2
f 28/28/2 29/29/2 30/30/2
f 31/31/5 32/32/5 33/33/5
f 34/34/2 35/35/2 36/36/2
f 37/37/2 39/38/2 38/39/2
f 40/40/5 41/41/5 42/42/5
f 45/43/6 43/44/6 44/45/6
f 46/46/7 47/47/7 48/48/7
f 51/49/8 49/50/8 50/51/8
f 54/52/8 52/53/8 53/54/8
f 55/55/9 56/56/9 57/57/9
